<?xml version="1.0" encoding="utf-8"?>
<!-- Generator: Adobe Illustrator 17.1.0, SVG Export Plug-In . SVG Version: 6.00 Build 0)  -->
<!DOCTYPE svg PUBLIC "-//W3C//DTD SVG 1.1//EN" "http://www.w3.org/Graphics/SVG/1.1/DTD/svg11.dtd">
<svg version="1.1" id="Layer_1" xmlns="http://www.w3.org/2000/svg" xmlns:xlink="http://www.w3.org/1999/xlink" x="0px" y="0px"
	 viewBox="0 0 300 300" enable-background="new 0 0 300 300" xml:space="preserve">
<path fill="#578255" d="M19.4,149.2"/>
<path fill="#89AA87" d="M138.4,51.2c-70.1,0-127,45.6-127,101.9s56.9,101.9,127,101.9c43.7,0,68.1-22.8,89.1-50.4
	c-19.5,16.3-48,26.6-79.8,26.6c-58.7,0-106.3-35.1-106.3-78.5c0-43.3,47.6-78.5,106.3-78.5s106.3,35.1,106.3,78.5
	c0,6.7-1.1,13.1-3.2,19.3c4.7-6.5,9.5-12.9,14.6-18.9C331.7,74.3,208.5,51.2,138.4,51.2z"/>
<path fill="#FFFFFF" d="M-11.3,148.8"/>
</svg>
